<svg id="圖層_1" data-name="圖層 1" xmlns="http://www.w3.org/2000/svg" viewBox="0 0 366.8 204.01"><defs><style>.cls-1{fill:#2e3192;stroke:#0071bc;}.cls-1,.cls-10,.cls-5{stroke-miterlimit:10;stroke-width:2px;}.cls-12,.cls-2,.cls-7{font-size:12px;font-family:MicrosoftJhengHeiLight, Microsoft JhengHei;}.cls-3{letter-spacing:0.04em;}.cls-4{letter-spacing:-0.01em;}.cls-10,.cls-5{fill:none;}.cls-5{stroke:red;}.cls-6,.cls-7{fill:red;}.cls-8{letter-spacing:0.01em;}.cls-9{letter-spacing:-0.08em;}.cls-10{stroke:#009245;}.cls-11,.cls-12{fill:#009245;}.cls-13{letter-spacing:-0.05em;}</style></defs><title>工作區域 1</title><line class="cls-1" x1="13.33" y1="17.68" x2="13.33" y2="204.01"/><line class="cls-1" x1="350.67" y1="17.68" x2="350.67" y2="204.01"/><text class="cls-2" transform="translate(0 10.68)">Se<tspan class="cls-3" x="13.03" y="0">r</tspan><tspan class="cls-4" x="17.84" y="0">v</tspan><tspan x="23.65" y="0">er</tspan></text><text class="cls-2" transform="translate(336 10.68)">Client</text><text class="cls-2" transform="translate(152.67 34.35)">1. 建立遊戲</text><line class="cls-5" x1="345.33" y1="40.68" x2="27.42" y2="40.68"/><path class="cls-6" d="M19.33,40.68a40.5,40.5,0,0,0,11.45-6.37l-2.31,6.37,2.31,6.37A40.46,40.46,0,0,0,19.33,40.68Z"/><text class="cls-7" transform="translate(52.67 34.35)">CR<tspan class="cls-8" x="15.28" y="0">E</tspan><tspan class="cls-9" x="21.83" y="0">A</tspan><tspan x="29.06" y="0">TE</tspan></text><text class="cls-2" transform="translate(158.67 74.35)">遊戲ID</text><line class="cls-10" x1="24" y1="80.68" x2="333.91" y2="80.68"/><path class="cls-11" d="M342,80.68a40.5,40.5,0,0,0-11.45,6.37l2.31-6.37-2.31-6.37A40.46,40.46,0,0,0,342,80.68Z"/><text class="cls-12" transform="translate(276 74.35)">CR<tspan class="cls-8" x="15.28" y="0">E</tspan><tspan class="cls-9" x="21.83" y="0">A</tspan><tspan x="29.06" y="0">TE</tspan></text><text class="cls-2" transform="translate(153.67 170.35)">3. 配對完成</text><line class="cls-10" x1="24" y1="176.68" x2="333.91" y2="176.68"/><path class="cls-11" d="M342,176.68a40.5,40.5,0,0,0-11.45,6.37l2.31-6.37-2.31-6.37A40.46,40.46,0,0,0,342,176.68Z"/><text class="cls-12" transform="translate(276 170.35)">M<tspan class="cls-9" x="10.84" y="0">A</tspan><tspan class="cls-13" x="18.07" y="0">T</tspan><tspan x="24.12" y="0">CH</tspan></text><text class="cls-2" transform="translate(152.67 124.35)">2. 加入遊戲</text><line class="cls-5" x1="345.33" y1="130.68" x2="27.42" y2="130.68"/><path class="cls-6" d="M19.33,130.68a40.5,40.5,0,0,0,11.45-6.37l-2.31,6.37,2.31,6.37A40.46,40.46,0,0,0,19.33,130.68Z"/><text class="cls-7" transform="translate(52.67 124.35)">JOIN</text></svg>