<svg id="圖層_1" data-name="圖層 1" xmlns="http://www.w3.org/2000/svg" viewBox="0 0 366.8 338.01"><defs><style>.cls-1{fill:#2e3192;stroke:#0071bc;}.cls-1,.cls-5,.cls-8{stroke-miterlimit:10;stroke-width:2px;}.cls-10,.cls-2,.cls-7{font-size:12px;font-family:MicrosoftJhengHeiLight, Microsoft JhengHei;}.cls-3{letter-spacing:0.04em;}.cls-4{letter-spacing:-0.01em;}.cls-5,.cls-8{fill:none;}.cls-5{stroke:red;}.cls-6,.cls-7{fill:red;}.cls-8{stroke:#009245;}.cls-10,.cls-9{fill:#009245;}.cls-11{letter-spacing:-0.01em;}.cls-12{letter-spacing:-0.08em;}.cls-13{letter-spacing:-0.03em;}.cls-14{letter-spacing:-0.06em;}.cls-15{font-family:AdobeMingStd-Light-B5pc-H, Adobe Ming Std;}.cls-16{letter-spacing:0.01em;}</style></defs><title>工作區域 1</title><line class="cls-1" x1="13.33" y1="17.68" x2="13.33" y2="338.01"/><line class="cls-1" x1="350.67" y1="17.68" x2="350.67" y2="338.01"/><text class="cls-2" transform="translate(0 10.68)">Se<tspan class="cls-3" x="13.03" y="0">r</tspan><tspan class="cls-4" x="17.84" y="0">v</tspan><tspan x="23.65" y="0">er</tspan></text><text class="cls-2" transform="translate(336 10.68)">Client</text><text class="cls-2" transform="translate(146.67 34.35)">1. 取得遊戲資訊</text><line class="cls-5" x1="345.33" y1="40.68" x2="27.42" y2="40.68"/><path class="cls-6" d="M19.33,40.68a40.5,40.5,0,0,0,11.45-6.37l-2.31,6.37,2.31,6.37A40.46,40.46,0,0,0,19.33,40.68Z"/><text class="cls-7" transform="translate(52.67 34.35)">INFO</text><text class="cls-2" transform="translate(150 74.35)">2. 題目製作狀態</text><line class="cls-8" x1="24" y1="80.68" x2="333.91" y2="80.68"/><path class="cls-9" d="M342,80.68a40.5,40.5,0,0,0-11.45,6.37l2.31-6.37-2.31-6.37A40.46,40.46,0,0,0,342,80.68Z"/><text class="cls-10" transform="translate(259.33 74.35)"><tspan class="cls-11">C</tspan><tspan x="7.88" y="0">OMPUTING</tspan></text><text class="cls-2" transform="translate(153.67 170.35)">4. 開始遊戲</text><line class="cls-8" x1="24" y1="176.68" x2="333.91" y2="176.68"/><path class="cls-9" d="M342,176.68a40.5,40.5,0,0,0-11.45,6.37l2.31-6.37-2.31-6.37A40.46,40.46,0,0,0,342,176.68Z"/><text class="cls-10" transform="translate(276 170.35)">S<tspan class="cls-12" x="6.47" y="0">T</tspan><tspan x="12.13" y="0">A</tspan><tspan class="cls-13" x="20.29" y="0">R</tspan><tspan x="27.18" y="0">T</tspan></text><text class="cls-2" transform="translate(163 210.35)">5. 題目</text><line class="cls-8" x1="24" y1="216.68" x2="333.91" y2="216.68"/><path class="cls-9" d="M342,216.68a40.5,40.5,0,0,0-11.45,6.37l2.31-6.37-2.31-6.37A40.46,40.46,0,0,0,342,216.68Z"/><text class="cls-10" transform="translate(276 210.35)">QUESTION</text><text class="cls-2" transform="translate(174 280.35)">結果</text><line class="cls-8" x1="24" y1="286.68" x2="333.91" y2="286.68"/><path class="cls-9" d="M342,286.68a40.5,40.5,0,0,0-11.45,6.37l2.31-6.37-2.31-6.37A40.46,40.46,0,0,0,342,286.68Z"/><text class="cls-10" transform="translate(276 280.35)">RESU<tspan class="cls-14" x="28.6" y="0">L</tspan><tspan x="33.83" y="0">T</tspan></text><text class="cls-2" transform="translate(152.67 124.35)">3. <tspan class="cls-15" x="13.12" y="0">準備完成</tspan></text><line class="cls-5" x1="345.33" y1="130.68" x2="27.42" y2="130.68"/><path class="cls-6" d="M19.33,130.68a40.5,40.5,0,0,0,11.45-6.37l-2.31,6.37,2.31,6.37A40.46,40.46,0,0,0,19.33,130.68Z"/><text class="cls-7" transform="translate(52.67 124.35)">R<tspan class="cls-16" x="7.22" y="0">E</tspan><tspan x="13.78" y="0">ADY</tspan></text><text class="cls-2" transform="translate(177.33 244.35)">答案</text><line class="cls-5" x1="345.33" y1="250.68" x2="27.42" y2="250.68"/><path class="cls-6" d="M19.33,250.68a40.5,40.5,0,0,0,11.45-6.37l-2.31,6.37,2.31,6.37A40.46,40.46,0,0,0,19.33,250.68Z"/><text class="cls-7" transform="translate(52.67 244.35)">ANSWER</text><text class="cls-2" transform="translate(163 320.35)">6. 結束遊戲</text><line class="cls-8" x1="24" y1="326.68" x2="333.91" y2="326.68"/><path class="cls-9" d="M342,326.68a40.5,40.5,0,0,0-11.45,6.37l2.31-6.37-2.31-6.37A40.46,40.46,0,0,0,342,326.68Z"/><text class="cls-10" transform="translate(276 320.35)">END</text></svg>